<svg xmlns="http://www.w3.org/2000/svg" viewBox="0 0 448 448"><path fill="#226699" d="M 400,448 H 48 C 21.49,448 0,426.51 0,400 V 48 C 0,21.49 21.49,0 48,0 h 352 c 26.51,0 48,21.49 48,48 v 352 c 0,26.51 -21.49,48 -48,48 z m -204.686,-98.059 184,-184 c 6.248,-6.248 6.248,-16.379 0,-22.627 l -22.627,-22.627 c -6.248,-6.248 -16.379,-6.249 -22.628,0 L 184,270.745 113.941,200.686 c -6.248,-6.248 -16.379,-6.248 -22.628,0 l -22.627,22.627 c -6.248,6.248 -6.248,16.379 0,22.627 l 104,104 c 6.249,6.25 16.379,6.25 22.628,10e-4 z" /></svg>
